<?xml version="1.0" encoding="utf-8"?>
<!-- Generator: Adobe Illustrator 22.0.1, SVG Export Plug-In . SVG Version: 6.00 Build 0)  -->
<svg version="1.1" xmlns="http://www.w3.org/2000/svg" xmlns:xlink="http://www.w3.org/1999/xlink" x="0px" y="0px"
	width="80px" height="80px" viewBox="0 0 195.7 223.3" style="enable-background:new 0 0 195.7 223.3;" xml:space="preserve">
<style type="text/css">
	.st0{display:none;}
	.st1{display:inline;}
	.st2{stroke:#000000;stroke-width:2;stroke-linecap:round;stroke-linejoin:round;stroke-miterlimit:10;}
	.st3{fill:#010002;}
	.st4{fill:#FFFF33;stroke:#000000;stroke-width:3;stroke-miterlimit:10;}
	.st5{stroke:#000000;stroke-width:3;stroke-miterlimit:10;}
</style>
<g id="Camada_1" class="st0">
	<g class="st1">
		<g id="Слой_1_2_">
			<path class="st2" d="M187,183.6c-2.7-5.8-25.1-60.2-25.1-60.2c-3.5-10.8-9.3-11.9-9.3-11.9c-6.2-1.9-9.7-12.3-9.7-12.3
				c-2.2-8.2-21.4-37.8-21.4-37.8c1.1-1-0.3-2.1-0.3-2.1c-1-0.8-1.5-2.2-1.8-3.4c0.7-0.9,1-1.7,0.7-2.4c-0.8-1.9-5.8-1.6-11.2,0.6
				c-0.1,0-0.2,0.1-0.2,0.1s-0.2,0.1-0.2,0.1c-5.4,2.2-9.2,5.6-8.4,7.5c0.3,0.7,1.1,1,2.2,1.2c0.6,1.1,1.2,2.5,1.1,3.7
				c0,0-0.2,1.7,1.2,1.7c0,0,7.4,34.6,11.6,41.9c0,0,4.9,9.9,1.8,15.6c0,0-3.4,4.8,1.8,15c0,0,22.6,54.3,24.8,60.3
				c0,0,1.5,7.2,12.5,5l24.8-10.3C191.1,189.8,187,183.6,187,183.6z"/>
		</g>
		<g id="Слой_1_1_">
			<path class="st2" d="M18,205.4l24.8,10.3c11,2.2,12.5-5,12.5-5c2.2-5.9,24.8-60.3,24.8-60.3c5.2-10.1,1.8-15,1.8-15
				c-3.1-5.7,1.8-15.6,1.8-15.6c4.2-7.3,11.6-41.9,11.6-41.9c1.5,0,1.2-1.7,1.2-1.7c-0.1-1.2,0.5-2.6,1.1-3.7
				c1.1-0.2,1.9-0.6,2.2-1.2c0.8-1.9-2.9-5.3-8.4-7.5c-0.1,0-0.2-0.1-0.2-0.1c-0.1,0-0.1-0.1-0.2-0.1c-5.4-2.2-10.4-2.5-11.2-0.6
				c-0.3,0.7,0,1.5,0.7,2.4c-0.3,1.2-0.9,2.6-1.8,3.4c0,0-1.4,1-0.3,2.1c0,0-19.3,29.7-21.4,37.8c0,0-3.5,10.4-9.7,12.3
				c0,0-5.9,1-9.3,11.9c0,0-22.4,54.4-25.1,60.2C12.7,193,8.7,199.2,18,205.4z"/>
		</g>
		<g>
			<path d="M78.8,45.7l-22.9-22L82,41.8c1.1,0.8,1.4,2.4,0.6,3.5c-0.8,1.1-2.4,1.4-3.5,0.6C79,45.9,78.9,45.8,78.8,45.7z"/>
		</g>
		<g>
			<path d="M97.4,39l2.5-38.8l2.5,38.8c0.1,1.4-1,2.6-2.3,2.7s-2.6-1-2.7-2.3C97.4,39.2,97.4,39.1,97.4,39z"/>
		</g>
		<g>
			<path d="M117.8,41.8l26.1-18.1l-22.9,22c-1,1-2.6,0.9-3.5-0.1c-1-1-0.9-2.6,0.1-3.5C117.6,42,117.7,41.9,117.8,41.8z"/>
		</g>
	</g>
</g>
<g id="Camada_2">
	<g>
		<g id="Слой_1_3_">
			<path class="st3" d="M125,178.4c-0.3-7.5-0.1-76.8-0.1-76.8c1.1-13.4-4.8-17.1-4.8-17.1c-5.9-4.8-5-17.8-5-17.8
				c1.3-9.8-6.3-50.9-6.3-50.9c1.6-0.7,0.6-2.4,0.6-2.4c-0.7-1.3-0.7-3.1-0.5-4.5c1.1-0.7,1.8-1.5,1.8-2.3c0-2.4-5.6-4.4-12.5-4.4
				c-0.1,0-0.2,0-0.3,0s-0.2,0-0.3,0c-6.9,0-12.5,2-12.5,4.4c0,0.8,0.7,1.6,1.8,2.3c0.2,1.4,0.2,3.2-0.5,4.5c0,0-1,1.8,0.6,2.4
				c0,0-7.6,41-6.3,50.9c0,0,0.9,12.9-5,17.8c0,0-5.9,3.7-4.8,17.1c0,0,0.1,69.4-0.1,76.8c0,0-1.6,8.5,11.3,11.1h31.6
				C126.6,186.9,125,178.4,125,178.4z"/>
		</g>
		<g>
			<polygon class="st4" points="18.7,193 23.3,202.2 33.5,203.7 26.1,210.9 27.9,221.1 18.7,216.3 9.5,221.1 11.3,210.9 3.9,203.7 
				14.1,202.2 			"/>
			<polygon class="st4" points="58.3,193 62.8,202.2 73.1,203.7 65.7,210.9 67.4,221.1 58.3,216.3 49.1,221.1 50.9,210.9 
				43.5,203.7 53.7,202.2 			"/>
			<polygon class="st4" points="97.8,193 102.4,202.2 112.6,203.7 105.2,210.9 107,221.1 97.8,216.3 88.7,221.1 90.4,210.9 
				83,203.7 93.3,202.2 			"/>
			<polygon class="st5" points="137.4,193 142,202.2 152.2,203.7 144.8,210.9 146.6,221.1 137.4,216.3 128.2,221.1 130,210.9 
				122.6,203.7 132.8,202.2 			"/>
			<polygon class="st5" points="177,193 181.5,202.2 191.8,203.7 184.4,210.9 186.1,221.1 177,216.3 167.8,221.1 169.6,210.9 
				162.2,203.7 172.4,202.2 			"/>
		</g>
	</g>
</g>
</svg>
