<?xml version="1.0" encoding="utf-8"?>
<!-- Generator: Adobe Illustrator 22.0.1, SVG Export Plug-In . SVG Version: 6.00 Build 0)  -->
<svg version="1.1" id="Camada_1" xmlns="http://www.w3.org/2000/svg" xmlns:xlink="http://www.w3.org/1999/xlink" x="0px" y="0px"
	 width="80px" height="80px" viewBox="0 0 195.7 223.3" style="enable-background:new 0 0 195.7 223.3;" xml:space="preserve">
<style type="text/css">
	.st0{fill:#010002;}
	.st1{fill:#FFFF33;stroke:#000000;stroke-width:2;stroke-miterlimit:10;}
	.st2{stroke:#000000;stroke-width:2;stroke-miterlimit:10;}
</style>
<g id="Camada_2_1_">
	<g>
		<g id="Слой_1_3_">
			<path class="st0" d="M121.1,162.4c-0.3-6.4-0.1-66-0.1-66c0.9-11.5-4.1-14.7-4.1-14.7c-5.1-4.1-4.3-15.3-4.3-15.3
				c1.1-8.4-5.4-43.8-5.4-43.8c1.4-0.6,0.5-2.1,0.5-2.1c-0.6-1.1-0.6-2.7-0.4-3.9c0.9-0.6,1.5-1.3,1.5-2c0-2.1-4.8-3.8-10.7-3.8
				c-0.1,0-0.2,0-0.3,0s-0.2,0-0.3,0c-5.9,0-10.7,1.7-10.7,3.8c0,0.7,0.6,1.4,1.5,2c0.2,1.2,0.2,2.8-0.4,3.9c0,0-0.9,1.5,0.5,2.1
				c0,0-6.5,35.3-5.4,43.8c0,0,0.8,11.1-4.3,15.3c0,0-5.1,3.2-4.1,14.7c0,0,0.1,59.7-0.1,66c0,0-1.4,7.3,9.7,9.5h27.2
				C122.5,169.8,121.1,162.4,121.1,162.4z"/>
		</g>
		<g>
			<polygon class="st1" points="22,185.5 26.4,194.3 36.2,195.7 29.1,202.6 30.8,212.4 22,207.8 13.2,212.4 14.9,202.6 7.8,195.7 
				17.6,194.3 			"/>
			<polygon class="st1" points="59.9,185.5 64.2,194.3 74.1,195.7 67,202.6 68.7,212.4 59.9,207.8 51.1,212.4 52.8,202.6 
				45.7,195.7 55.5,194.3 			"/>
			<polygon class="st1" points="97.8,185.5 102.2,194.3 112,195.7 104.9,202.6 106.6,212.4 97.8,207.8 89.1,212.4 90.7,202.6 
				83.6,195.7 93.5,194.3 			"/>
			<polygon class="st1" points="135.7,185.5 140.1,194.3 149.9,195.7 142.8,202.6 144.6,212.4 135.7,207.8 126.9,212.4 128.6,202.6 
				121.6,195.7 131.3,194.3 			"/>
			<polygon class="st2" points="173.7,185.5 178,194.3 187.9,195.7 180.8,202.6 182.4,212.4 173.7,207.8 164.9,212.4 166.6,202.6 
				159.5,195.7 169.3,194.3 			"/>
		</g>
	</g>
</g>
</svg>
