<?xml version="1.0" encoding="utf-8"?>
<!-- Generator: Adobe Illustrator 22.0.1, SVG Export Plug-In . SVG Version: 6.00 Build 0)  -->
<svg version="1.1" id="Camada_1" xmlns="http://www.w3.org/2000/svg" xmlns:xlink="http://www.w3.org/1999/xlink" x="0px" y="0px"
	 viewBox="0 0 256 256" style="enable-background:new 0 0 256 256;" xml:space="preserve">
<style type="text/css">
	.st0{fill:#DEDEDE;}
	.st1{fill:#FFFFFF;}
</style>
<rect class="st0" width="256" height="256"/>
<g id="Слой_1_3_">
	<path class="st1" d="M160.4,250.4c-0.4-9,0-93,0-93c1.5-16.2-5.6-20.7-5.6-20.7c-7.2-5.6-6-21.5-6-21.5c1.5-12.1-7.5-61.8-7.5-61.8
		c1.9-0.8,0.8-3,0.8-3c-0.8-1.5-0.8-3.8-0.8-5.3c1.5-0.8,2.3-1.9,2.3-2.6c0-3-6.8-5.3-15.1-5.3H128h-0.4c-8.3,0-15.1,2.3-15.1,5.3
		c0,1.1,0.8,1.9,2.3,2.6c0.4,1.9,0.4,3.8-0.8,5.3c0,0-1.1,2.3,0.8,3c0,0-9,49.7-7.5,61.8c0,0,1.1,15.4-6,21.5c0,0-7.2,4.5-5.6,20.7
		c0,0,0,84,0,93c0,0-1.9,10.2,13.6,13.6h38.4C162.3,260.6,160.4,250.4,160.4,250.4z"/>
</g>
</svg>
