<?xml version="1.0" encoding="utf-8"?>
<!-- Generator: Adobe Illustrator 22.0.1, SVG Export Plug-In . SVG Version: 6.00 Build 0)  -->
<svg version="1.1" id="Camada_1" xmlns="http://www.w3.org/2000/svg" xmlns:xlink="http://www.w3.org/1999/xlink" x="0px" y="0px"
	width="80px" height="80px" viewBox="0 0 195.7 223.3" style="enable-background:new 0 0 195.7 223.3;" xml:space="preserve">
<style type="text/css">
	.st0{stroke:#000000;stroke-width:2;stroke-linecap:round;stroke-linejoin:round;stroke-miterlimit:10;}
</style>
<g>
	<g id="Слой_1_2_">
		<path class="st0" d="M187,183.6c-2.7-5.8-25.1-60.2-25.1-60.2c-3.5-10.8-9.3-11.9-9.3-11.9c-6.2-1.9-9.7-12.3-9.7-12.3
			c-2.2-8.2-21.4-37.8-21.4-37.8c1.1-1-0.3-2.1-0.3-2.1c-1-0.8-1.5-2.2-1.8-3.4c0.7-0.9,1-1.7,0.7-2.4c-0.8-1.9-5.8-1.6-11.2,0.6
			c-0.1,0-0.2,0.1-0.2,0.1s-0.2,0.1-0.2,0.1c-5.4,2.2-9.2,5.6-8.4,7.5c0.3,0.7,1.1,1,2.2,1.2c0.6,1.1,1.2,2.5,1.1,3.7
			c0,0-0.2,1.7,1.2,1.7c0,0,7.4,34.6,11.6,41.9c0,0,4.9,9.9,1.8,15.6c0,0-3.4,4.8,1.8,15c0,0,22.6,54.3,24.8,60.3
			c0,0,1.5,7.2,12.5,5l24.8-10.3C191.1,189.8,187,183.6,187,183.6z"/>
	</g>
	<g id="Слой_1_1_">
		<path class="st0" d="M18,205.4l24.8,10.3c11,2.2,12.5-5,12.5-5c2.2-5.9,24.8-60.3,24.8-60.3c5.2-10.1,1.8-15,1.8-15
			c-3.1-5.7,1.8-15.6,1.8-15.6c4.2-7.3,11.6-41.9,11.6-41.9c1.5,0,1.2-1.7,1.2-1.7c-0.1-1.2,0.5-2.6,1.1-3.7
			c1.1-0.2,1.9-0.6,2.2-1.2c0.8-1.9-2.9-5.3-8.4-7.5c-0.1,0-0.2-0.1-0.2-0.1c-0.1,0-0.1-0.1-0.2-0.1c-5.4-2.2-10.4-2.5-11.2-0.6
			c-0.3,0.7,0,1.5,0.7,2.4c-0.3,1.2-0.9,2.6-1.8,3.4c0,0-1.4,1-0.3,2.1c0,0-19.3,29.7-21.4,37.8c0,0-3.5,10.4-9.7,12.3
			c0,0-5.9,1-9.3,11.9c0,0-22.4,54.4-25.1,60.2C12.7,193,8.7,199.2,18,205.4z"/>
	</g>
	<g>
		<path d="M78.8,45.7l-22.9-22L82,41.8c1.1,0.8,1.4,2.4,0.6,3.5c-0.8,1.1-2.4,1.4-3.5,0.6C79,45.9,78.9,45.8,78.8,45.7z"/>
	</g>
	<g>
		<path d="M97.4,39l2.5-38.8l2.5,38.8c0.1,1.4-1,2.6-2.3,2.7s-2.6-1-2.7-2.3C97.4,39.2,97.4,39.1,97.4,39z"/>
	</g>
	<g>
		<path d="M117.8,41.8l26.1-18.1l-22.9,22c-1,1-2.6,0.9-3.5-0.1c-1-1-0.9-2.6,0.1-3.5C117.6,42,117.7,41.9,117.8,41.8z"/>
	</g>
</g>
</svg>
