<?xml version="1.0" encoding="utf-8"?>
<!-- Generator: Adobe Illustrator 22.0.1, SVG Export Plug-In . SVG Version: 6.00 Build 0)  -->
<svg version="1.1" id="Camada_1" xmlns="http://www.w3.org/2000/svg" xmlns:xlink="http://www.w3.org/1999/xlink" x="0px" y="0px"
	 viewBox="0 0 256 256" style="enable-background:new 0 0 256 256;" xml:space="preserve">
<style type="text/css">
	.st0{fill:#DEDEDE;}
	.st1{fill:#FFFFFF;}
</style>
<rect class="st0" width="256" height="256"/>
<g>
	<path class="st1" d="M164.8,83c35.7-1.4,43,78.6,2.9,78.6V183c80-7.1,62.9-124.3-2.9-120V83L164.8,83z"/>
	<path class="st1" d="M44.1,44.2c4.7-8.1,9.9-8.9,17.3-7.4c1,0.2,2-0.2,2.6-1.1c3.4-5.1,6.9-8,10.5-8.5c3.4-0.5,7.2,1.1,11.6,4.7
		c1,0.9,2.6,0.7,3.5-0.3c3.9-4.4,7.5-6.6,11-6.7c4.9-0.1,9.6,3.9,13.9,8.2c0.7,0.7,1.8,0.9,2.7,0.6c3.5-1.4,7.8-2.8,10.6-1.5
		c1.4,0.7,2.5,2.1,3.2,4.3c0.4,1.3,1.8,2,3.1,1.6c8.2-2.7,13.6-0.9,17,5.9l0,0c0.6,1.2,2.1,1.7,3.3,1.1c1.2-0.6,1.7-2.1,1.1-3.3l0,0
		c-3.1-6.3-9.7-12.8-23-8.4c1.3-0.4,2.7,0.3,3.1,1.6c-1.2-3.5-3.1-6-5.9-7.2c-4.5-2.1-9.9-0.4-14.6,1.4c0.9-0.4,2-0.1,2.7,0.6
		c-5.2-5.2-10.9-9.9-17.6-9.7c-4.9,0.1-9.7,2.9-14.6,8.4c0.9-1,2.4-1.1,3.5-0.3c-5.6-4.6-10.6-6.5-15.5-5.8
		c-5.1,0.7-9.6,4.2-13.9,10.6c0.6-0.8,1.6-1.3,2.6-1.1c-7.6-1.5-16.2-1.5-22.7,9.8l0,0c-0.7,1.2-0.3,2.7,0.9,3.4
		C41.9,45.9,43.4,45.4,44.1,44.2L44.1,44.2L44.1,44.2z"/>
	<path class="st1" d="M37.7,50.2c-1.4,57.1-1.4,114.3-2.9,171.5c0,7.1,0,14.3,8.6,14.3c35.7,0,72.9,0,110,0
		c4.3-1.4,8.6-2.9,7.1-11.4c-1.4-58.6-2.9-117.2-4.3-175.7L37.7,50.2L37.7,50.2z M47.7,211.6h97.1l5.7,12.9H43.4L47.7,211.6
		L47.7,211.6z M62,83v121.4c0,1.4-2.9,2.9-4.3,2.9l0,0c-2.9,0-4.3-1.4-4.3-2.9V83h-10V54.4h107.2V83L62,83L62,83z"/>
</g>
</svg>
