<?xml version="1.0" encoding="utf-8"?>
<!-- Generator: Adobe Illustrator 22.0.1, SVG Export Plug-In . SVG Version: 6.00 Build 0)  -->
<svg version="1.1" id="Camada_1" xmlns="http://www.w3.org/2000/svg" xmlns:xlink="http://www.w3.org/1999/xlink" x="0px" y="0px"
	 width="400px" viewBox="0 0 595.3 841.9" style="enable-background:new 0 0 595.3 841.9;" xml:space="preserve">
<style type="text/css">
	.st0{stroke:#FFFFFF;stroke-width:6;stroke-linecap:round;stroke-linejoin:round;}
	.st1{fill:#FFFFFF;stroke:#000000;stroke-width:6;stroke-linecap:round;stroke-linejoin:round;}
	.st2{stroke:#FFFFFF;stroke-width:6;stroke-linecap:round;stroke-linejoin:round;stroke-miterlimit:3;}
	.st3{fill:none;stroke:#010002;stroke-width:4;stroke-miterlimit:10;}
	.st4{fill:none;stroke:#A70FBC;stroke-width:6;stroke-linecap:round;stroke-linejoin:round;}
	.st5{fill:none;stroke:#B517C6;stroke-width:6;stroke-linecap:round;stroke-linejoin:round;}
	.st6{enable-background:new    ;}
</style>
<g>
	<title>SmartPhone</title>
	<g>
		<path class="st0" d="M162,187.2v472.3c0,25,20.3,45.4,45.4,45.4h218.3c25,0,45.4-20.3,45.4-45.4V187.2c0-25-20.3-45.4-45.4-45.4
			H207.4C182.3,141.9,162,162.2,162,187.2z"/>
		<path class="st1" d="M203.5,634.9h226c4.7,0,8.5-3.8,8.5-8.5v-437c0-4.7-3.8-8.5-8.5-8.5h-226c-4.7,0-8.5,3.8-8.5,8.5v437
			C195,631.1,198.8,634.9,203.5,634.9z"/>
	</g>
	<g id="shape1-5" transform="translate(281.575,-676.063)">
		<path class="st2" d="M4.1,834h60.7c2.2,0,4,1.8,4,4l0,0c0,2.2-1.8,4-4,4H4.1c-2.2,0-4-1.8-4-4l0,0C0.1,835.7,1.9,834,4.1,834z"/>
	</g>
	<g id="shape4-7" transform="translate(300.472,-158.74)">
		<ellipse class="st2" cx="15.6" cy="826.3" rx="15.6" ry="15.6"/>
	</g>
</g>
<path class="st3" d="M370.1,384.9c-13.6-10.5-11-37.8-11-37.8c3.5-20.8-12.6-108-12.6-108c3.8-1.3,1.5-5,1.5-5
	c-1.6-2.8-1.4-6.6-0.9-9.6c2.7-1.3,4.4-3,4.4-4.8c0.1-5.1-12.9-9.6-29-9.9c-0.3,0-0.5,0-0.7,0c-0.2,0-0.5,0-0.7,0
	c-16.1-0.3-29.2,3.6-29.3,8.8c0,1.8,1.6,3.5,4.2,5c0.4,3,0.4,6.9-1.3,9.5c0,0-2.5,3.7,1.3,5.1c0,0-19.5,86.5-16.8,107.4
	c0,0,1.5,27.4-12.5,37.4c0,0-14,7.6-11.9,36c0,0-0.2,12.6-0.5,30.8c-0.6,30.6-1.4,77.1-2.2,106.3h124.6l4.2-144H255h125.8l-4.2,144
	H252c-0.3,12.8-0.6,22.2-0.8,25.6c0,0-4.1,18,26,24l73.8,1.4c30.3-4.9,26.9-23,26.9-23c-0.3-11,1.2-85.7,2.1-130
	c0.4-19.2,0.7-32.7,0.7-32.7C383.8,393.1,370.1,384.9,370.1,384.9z"/>
<polyline class="st4" points="261,452.9 261,423.9 282,423.9 "/>
<polyline class="st5" points="370,515.9 370,544.9 349,544.9 "/>
<g>
	<g class="st6">
		<g>
			<path d="M271.3,469.7l5.8-10.2h1.5l-6.6,11.4h-1.5l-6.6-11.4h1.5L271.3,469.7z"/>
		</g>
		<g>
			<path d="M286.9,461.7h5.2v1.3h-5.2c-0.2,0-0.3,0.1-0.4,0.2c-0.1,0.1-0.2,0.3-0.2,0.4v7.3h-1.3v-7.3c0-0.5,0.2-1,0.6-1.4
				C285.9,461.9,286.3,461.7,286.9,461.7z"/>
		</g>
		<g>
			<path d="M298.4,463h-4v6c0,0.2,0.1,0.3,0.2,0.4c0.1,0.1,0.3,0.2,0.4,0.2h3.4v1.3H295c-0.5,0-1-0.2-1.4-0.6
				c-0.4-0.4-0.6-0.8-0.6-1.4v-10.3h1.3v3h4V463z"/>
		</g>
		<g>
			<path d="M307.7,461.7h1.3v7.3c0,0.5-0.2,1-0.6,1.4c-0.4,0.4-0.8,0.6-1.4,0.6h-5.5c-0.5,0-1-0.2-1.4-0.6c-0.4-0.4-0.6-0.8-0.6-1.4
				v-7.3h1.3v7.3c0,0.2,0.1,0.3,0.2,0.4c0.1,0.1,0.3,0.2,0.4,0.2h5.5c0.2,0,0.3-0.1,0.4-0.2c0.1-0.1,0.2-0.3,0.2-0.4V461.7z"/>
		</g>
		<g>
			<path d="M318.1,461.7c0.5,0,1,0.2,1.4,0.6c0.4,0.4,0.6,0.8,0.6,1.4v7.3h-7.5c-0.5,0-1-0.2-1.4-0.6c-0.4-0.4-0.6-0.8-0.6-1.4v-3.3
				h8.1v-2c0-0.2-0.1-0.3-0.2-0.4c-0.1-0.1-0.3-0.2-0.4-0.2h-7.4v-1.3H318.1z M318.7,469.6V467h-6.8v2c0,0.2,0.1,0.3,0.2,0.4
				c0.1,0.1,0.3,0.2,0.4,0.2H318.7z"/>
		</g>
		<g>
			<path d="M321.5,458.7h1.3V469c0,0.2,0.1,0.3,0.2,0.4c0.1,0.1,0.3,0.2,0.4,0.2h1.6v1.3h-1.6c-0.5,0-1-0.2-1.4-0.6
				c-0.4-0.4-0.6-0.8-0.6-1.4V458.7z"/>
		</g>
		<g>
			<path d="M332.6,465.6v1.3h-6.2v-1.3H332.6z"/>
		</g>
		<g>
			<path d="M334.6,459.5h9.5c0.5,0,1,0.2,1.3,0.6c0.4,0.4,0.6,0.8,0.6,1.3v3.4c0,0.5-0.2,1-0.6,1.3c-0.4,0.4-0.8,0.6-1.3,0.6h-7.6
				c-0.1,0-0.3,0-0.6-0.1v4.3h-1.3V459.5z M344.7,464.8v-3.4c0-0.2-0.1-0.3-0.2-0.4c-0.1-0.1-0.3-0.2-0.4-0.2h-7.6
				c-0.2,0-0.3,0.1-0.4,0.2c-0.1,0.1-0.2,0.3-0.2,0.4v3.4c0,0.2,0.1,0.3,0.2,0.4c0.1,0.1,0.3,0.2,0.4,0.2h7.6c0.2,0,0.3-0.1,0.4-0.2
				C344.6,465.1,344.7,464.9,344.7,464.8z"/>
		</g>
		<g>
			<path d="M355.2,461.7h1.3v7.3c0,0.5-0.2,1-0.6,1.4c-0.4,0.4-0.8,0.6-1.4,0.6H349c-0.5,0-1-0.2-1.4-0.6c-0.4-0.4-0.6-0.8-0.6-1.4
				v-7.3h1.3v7.3c0,0.2,0.1,0.3,0.2,0.4c0.1,0.1,0.3,0.2,0.4,0.2h5.5c0.2,0,0.3-0.1,0.4-0.2c0.1-0.1,0.2-0.3,0.2-0.4V461.7z"/>
		</g>
	</g>
	<g id="Слой_1_5_">
		<g>
			<path d="M282.5,470.9h-2.6c0,0-0.1,0-0.1,0c-1.1-0.2-1.3-1-1.3-1.4c0-0.7,0-5.8,0-6.2c-0.1-1.2,0.4-1.6,0.6-1.8
				c0.2-0.2,0.3-0.7,0.2-1c-0.1-0.8,0.3-3.3,0.5-4c0,0,0,0,0,0c-0.1-0.2,0-0.4,0-0.4c-0.1-0.1-0.1-0.3-0.1-0.4
				c0-0.5,0.6-0.8,1.5-0.8h0c0.9,0,1.5,0.3,1.5,0.8c0,0.1,0,0.2-0.1,0.4c0,0.1,0.1,0.3,0,0.4c0,0,0,0,0,0c0.1,0.8,0.6,3.3,0.5,4
				c0,0.3,0.1,0.9,0.2,1c0.2,0.1,0.7,0.6,0.6,1.8l0,1.9c0,3.6,0,3.7,0,4.3C283.9,469.9,283.7,470.7,282.5,470.9
				C282.5,470.9,282.5,470.9,282.5,470.9z M280,470h2.5c0.5-0.1,0.5-0.4,0.5-0.4c0,0,0,0,0-0.1l0.5,0l-0.5,0c0-0.6,0-0.6,0-4.3
				l0-1.9c0,0,0,0,0,0c0.1-0.7-0.1-0.9-0.2-1c0,0,0,0,0,0c-0.6-0.5-0.6-1.7-0.6-1.8c0,0,0,0,0,0c0.1-0.5-0.3-2.7-0.5-4
				c0-0.1,0-0.2,0-0.2c0-0.1,0-0.3,0-0.4c-0.1,0-0.2,0-0.4,0h0c-0.2,0-0.3,0-0.4,0c0,0.2,0,0.3,0,0.4c0,0.1,0,0.2,0,0.2
				c-0.2,1.3-0.6,3.4-0.5,4c0,0,0,0,0,0c0,0.1,0.1,1.3-0.6,1.8c0,0,0,0,0,0c0,0-0.2,0.3-0.2,1c0,0,0,0,0,0c0,0.2,0,5.6,0,6.2
				c0,0,0,0,0,0.1C279.4,469.8,279.6,469.9,280,470z M279.6,462.3L279.6,462.3L279.6,462.3z M282.8,462.3L282.8,462.3L282.8,462.3z
				 M282.8,462.3L282.8,462.3L282.8,462.3z M281.7,456.4C281.7,456.4,281.7,456.4,281.7,456.4C281.7,456.4,281.7,456.4,281.7,456.4z
				 M280.7,456.4C280.7,456.4,280.7,456.4,280.7,456.4C280.7,456.4,280.7,456.4,280.7,456.4z"/>
		</g>
	</g>
	<g>
		<g>
			<path d="M365.3,470.9h-4.4c-1.3,0-2.3-0.4-2.5-0.6l-0.7-0.3v-8.8h1.1c0.1-0.1,0.2-0.2,0.3-0.2l0.2-0.1c0.3-0.3,0.8-1.1,1-1.4
				c0.4-0.6,0.6-1.1,0.6-1.4v-1.3l0-0.2c0-0.1,0.2-0.6,0.7-1c0.4-0.3,0.9-0.3,1.1-0.3c0.7,0,1.4,0.3,1.8,0.8
				c0.5,0.5,0.8,1.3,0.7,2.3c0,0.9-0.3,1.7-0.5,2.2l0,0.1c0,0.1,0,0.2-0.1,0.3c0,0,0,0,0,0h2.3c0.6,0,1.1,0.2,1.6,0.7
				c0.4,0.4,0.6,1,0.6,1.6c0,0.5-0.1,0.9-0.2,1l0,0.1c0.5,1,0.1,1.7-0.1,2.1l-0.1,0.1c0.3,1.1-0.4,1.9-0.8,2.2
				c0,0.8-0.3,1.3-0.6,1.5C366.7,470.8,365.7,470.9,365.3,470.9z M358.9,469.3L358.9,469.3c0.2,0.1,0.9,0.5,2,0.5h4.4
				c0.3,0,0.9,0,1.3-0.5c0.1-0.1,0.3-0.4,0.3-1l0-0.3l0.3-0.3c0.4-0.4,0.6-0.7,0.5-1.2c-0.1-0.4,0-0.6,0.1-0.8l0-0.1
				c0.2-0.3,0.3-0.6,0-1.2l0,0c0-0.1-0.1-0.2-0.1-0.3v-0.1l0.1-0.3c0-0.2,0.1-0.5,0.1-0.8c0-0.3-0.1-0.6-0.2-0.7
				c-0.2-0.2-0.5-0.3-0.7-0.3h-2.8c-0.4,0-0.7-0.5-0.7-0.9c0-0.2,0-0.3,0.1-0.6c0-0.1,0-0.2,0.1-0.2l0-0.1c0.2-0.5,0.4-1.2,0.4-1.9
				c0-0.7-0.1-1.1-0.4-1.5c-0.2-0.3-0.6-0.4-1-0.4c-0.1,0-0.3,0-0.4,0.1c-0.2,0.2-0.3,0.4-0.3,0.4l0,0v1.2c0,0.6-0.3,1.3-0.8,2
				c-0.3,0.4-0.8,1.2-1.1,1.6l-0.1,0.1l-0.2,0.1c-0.4,0.3-0.6,0.5-0.9,0.5h-0.1V469.3z M368.4,464.2L368.4,464.2L368.4,464.2
				L368.4,464.2z M368.4,464.2L368.4,464.2l0.4-0.2c0,0,0,0,0,0L368.4,464.2z"/>
		</g>
	</g>
</g>
<g>
	<path d="M346.9,513.7c-0.1-0.1-0.1-0.2-0.1-0.3l0.2-0.9c0.2-0.6,0.6-1.9,0.6-3.6c0.1-1.6-0.4-3.2-1.5-4.4c-1.1-1.2-2.6-1.8-4.2-1.8
		h-10.4c0,0-0.7-0.4-0.7-1.1c0-0.4,0.4-1.7,0.7-2.6c0.7-2.1,1.6-5,1.8-8.1c0.1-3-0.6-5.4-2.2-7.1c-1.4-1.4-3.3-2.2-5.3-2.2
		c-0.8,0-1.8,0.1-2.8,0.8c-1.4,1-1.8,2.3-1.9,2.6l-0.2,0.3v4.8c0.1,1.8-0.7,4-2.3,6.5c-0.9,1.4-2.8,4.3-4,5.7l-0.5,0.4
		c-0.7,0.6-1.7,1.5-2.3,1.3h-2.6V534l1.3,0.7c0.1,0.1,3.5,1.9,8.5,1.9h16.5c1.3,0,4.4-0.2,6.4-2.5c0.8-1,1.7-2.6,1.5-5.2
		c0.1-0.2,0.3-0.3,0.5-0.5c1.2-1.2,3.4-3.3,2.4-6.6c-0.2-0.6-0.1-0.7,0.3-1.5C347.4,519.2,348.7,517.1,346.9,513.7z"/>
</g>
<g id="Слой_1_6_">
	<path d="M307,532.6c-0.1-2.3,0-24.2,0-24.2c0.3-4.2-1.4-5.4-1.4-5.4c-1.8-1.5-1.5-5.6-1.5-5.6c0.4-3.1-1.9-16-1.9-16
		c0.5-0.2,0.2-0.8,0.2-0.8c-0.2-0.4-0.2-1-0.1-1.4c0.3-0.2,0.5-0.5,0.5-0.7c0-0.8-1.7-1.4-3.7-1.4c0,0-0.1,0-0.1,0c0,0-0.1,0-0.1,0
		c-2.1,0-3.7,0.6-3.7,1.4c0,0.3,0.2,0.5,0.5,0.7c0.1,0.5,0.1,1-0.1,1.4c0,0-0.3,0.6,0.2,0.8c0,0-2.3,12.9-1.9,16
		c0,0,0.3,4.1-1.5,5.6c0,0-1.8,1.2-1.4,5.4c0,0,0,21.8,0,24.2c0,0-0.5,2.7,3.4,3.5h9.4C307.5,535.3,307,532.6,307,532.6z"/>
</g>
</svg>
