<?xml version="1.0" encoding="utf-8"?>
<!-- Generator: Adobe Illustrator 22.0.1, SVG Export Plug-In . SVG Version: 6.00 Build 0)  -->
<svg version="1.1" id="Camada_1" xmlns="http://www.w3.org/2000/svg" xmlns:xlink="http://www.w3.org/1999/xlink" x="0px" y="0px"
	 viewBox="0 0 1280 220.3" style="enable-background:new 0 0 1280 220.3;" xml:space="preserve">
<style type="text/css">
	.st0{enable-background:new    ;}
	.st1{fill:#FFFFFF;}
</style>
<g>
	<g class="st0">
		<g>
			<path class="st1" d="M93.5,196.9l70.6-123h18.2L102.5,212h-18L4.5,74h18.2L93.5,196.9z"/>
		</g>
		<g>
			<path class="st1" d="M282.1,100.8h62.5v15.7h-62.5c-2,0-3.8,0.7-5.3,2.2s-2.2,3.2-2.2,5.3v88h-15.7v-88c0-6.4,2.3-11.9,6.8-16.4
				C270.2,103.1,275.7,100.8,282.1,100.8z"/>
		</g>
		<g>
			<path class="st1" d="M421.2,116.5H373v72.3c0,2,0.7,3.8,2.2,5.3s3.2,2.2,5.3,2.2h40.7V212h-40.7c-6.5,0-12-2.3-16.5-6.8
				s-6.7-10-6.7-16.4V64.4H373v36.4h48.1v15.7H421.2z"/>
		</g>
		<g>
			<path class="st1" d="M533.6,100.8h15.7v88c0,6.4-2.3,11.9-6.8,16.4s-10.1,6.8-16.6,6.8h-66.8c-6.4,0-11.9-2.3-16.4-6.8
				s-6.8-10-6.8-16.4v-88h15.7v88c0,2,0.7,3.8,2.2,5.3s3.2,2.2,5.3,2.2h66.8c2,0,3.8-0.7,5.4-2.2c1.5-1.5,2.3-3.2,2.3-5.3
				L533.6,100.8L533.6,100.8z"/>
		</g>
		<g>
			<path class="st1" d="M659,100.8c6.5,0,12.1,2.3,16.6,6.8s6.8,10,6.8,16.4v88h-90.2c-6.4,0-11.9-2.3-16.4-6.8s-6.8-10-6.8-16.4
				v-40.3h97.4V124c0-2-0.7-3.8-2.2-5.3s-3.2-2.2-5.3-2.2h-90v-15.7H659z M666.5,196.3v-32h-81.7v24.6c0,2,0.7,3.8,2.2,5.3
				s3.2,2.2,5.3,2.2h74.2V196.3z"/>
		</g>
		<g>
			<path class="st1" d="M700.3,64.4H716v124.5c0,2,0.7,3.8,2.2,5.3s3.2,2.2,5.3,2.2h18.8v15.7h-18.8c-6.4,0-11.9-2.3-16.4-6.8
				s-6.8-10-6.8-16.4V64.4z"/>
		</g>
		<g>
			<path class="st1" d="M834.3,147.4v15.7h-74.8v-15.7H834.3z"/>
		</g>
		<g>
			<path class="st1" d="M858.1,74.1h115.1c6.4,0,11.8,2.2,16.3,6.7s6.7,9.9,6.7,16.3v40.5c0,6.4-2.2,11.8-6.7,16.3
				s-9.9,6.7-16.3,6.7h-92.1c-1.2,0-3.6-0.3-7.5-0.8V212h-15.5V74.1z M980.7,137.6V97.2c0-2-0.7-3.8-2.2-5.3s-3.2-2.2-5.3-2.2h-92.1
				c-2,0-3.8,0.7-5.3,2.2s-2.2,3.2-2.2,5.3v40.5c0,2,0.7,3.8,2.2,5.2s3.2,2.1,5.3,2.1h92.1c2,0,3.8-0.7,5.3-2.1
				C980,141.4,980.7,139.7,980.7,137.6z"/>
		</g>
		<g>
			<path class="st1" d="M1106.9,100.8h15.7v88c0,6.4-2.3,11.9-6.8,16.4s-10.1,6.8-16.6,6.8h-66.8c-6.4,0-11.9-2.3-16.4-6.8
				s-6.8-10-6.8-16.4v-88h15.7v88c0,2,0.7,3.8,2.2,5.3s3.2,2.2,5.3,2.2h66.8c2,0,3.8-0.7,5.4-2.2c1.5-1.5,2.3-3.2,2.3-5.3V100.8z"/>
		</g>
	</g>
	<g id="Слой_1_5_">
		<g>
			<path class="st1" d="M229,212.1h-30.9c-0.4,0-0.7,0-1.1-0.1c-13.7-2.7-16.1-11.9-15.5-16.8c0.3-8.3,0.1-70.3,0.1-74.4
				c-1.1-14.1,4.9-19.8,6.8-21.3c2.2-1.9,3.1-8.4,2.8-12.5c-1.1-9.4,4.1-39.4,5.8-48.8c-0.1-0.1-0.1-0.3-0.2-0.4
				c-0.8-2.2-0.2-4.3,0.3-5.4c-1.4-1.7-1.7-3.3-1.7-4.6c0-6,6.9-9.8,17.7-9.8h0.6c10.8,0,17.7,3.8,17.7,9.8c0,1.1-0.3,2.9-1.7,4.7
				c0.5,1,1.1,3,0.3,5.3c-0.1,0.2-0.1,0.3-0.2,0.5c1.7,9.4,6.9,39.5,5.8,48.8c-0.2,4.1,0.6,10.6,2.9,12.5c1.9,1.4,7.9,7.1,6.8,21.3
				v22.7c-0.1,44.1-0.1,44.6,0.2,51.6c0.7,4.9-1.7,14-15.5,16.8C229.8,212,229.4,212.1,229,212.1z M198.7,201.1h29.8
				c6.4-1.4,6.3-4.3,6.3-4.4c-0.1-0.3-0.1-0.5-0.1-0.8l5.5-0.2l-5.5,0.2c-0.3-7.5-0.3-7.5-0.2-52.4v-22.9c0-0.1,0-0.3,0-0.4
				c0.7-8.1-1.8-11.2-2.3-11.7c-0.2-0.1-0.1-0.1-0.4-0.3c-7.8-6.3-7-20.4-6.9-22c0-0.1,0-0.2,0-0.4c0.9-6.4-3.3-32.8-6.1-48
				c-0.2-1-0.1-2.1,0.3-3c-0.4-1.6-0.5-3.4-0.2-5.4c-1.3-0.3-3-0.5-5-0.5h-0.6c-2,0-3.7,0.2-5,0.5c0.3,2,0.2,3.8-0.2,5.4
				c0.4,0.9,0.5,1.9,0.3,3c-2.8,15.2-7,41.6-6.1,48c0,0.1,0,0.2,0,0.4c0.1,1.6,0.8,15.7-6.9,22c-0.3,0.2-0.2,0.2-0.4,0.3
				c-0.6,0.6-3,3.6-2.3,11.7c0,0.1,0,0.3,0,0.4c0,2.8,0.1,68.1-0.1,75.4c0,0.4,0,0.4-0.1,0.8C192.3,198.1,193.9,200,198.7,201.1z
				 M194.8,108.5L194.8,108.5L194.8,108.5z M232.3,108.5L232.3,108.5L232.3,108.5z M232.3,108.5L232.3,108.5L232.3,108.5z M219.9,37
				c0,0,0,0.1,0.1,0.1C220,37.1,220,37,219.9,37z M207.3,36.8c0,0.1-0.1,0.1-0.1,0.2C207.3,37,207.3,36.9,207.3,36.8z"/>
		</g>
	</g>
	<g>
		<g>
			<path class="st1" d="M1229.5,212.1h-53.2c-15.9,0-27.3-5.2-30.5-6.7l-7.9-4.2V94.5h13.5c1-0.7,2.5-2,3.3-2.8l1.9-1.6
				c3.6-4.2,9.4-13.3,12-17.2c4.4-6.8,6.9-12.8,6.9-17.1V39.6l0.5-1.9c0.4-1.7,2.3-7.6,8.6-12.3c5.3-3.8,11.2-3.8,13.2-3.8
				c8.4,0,16.4,3.4,22,9.3c6.3,6.6,9.3,15.9,9,27.6c-0.6,10.8-3.6,20.2-5.8,27.1l-0.2,0.7c-0.3,1-0.6,2.1-0.9,3.1v0.1h28.1
				c7.1,0,13.9,3,18.7,8.2c4.6,4.6,7.1,11.6,6.8,19c-0.3,5.6-1.7,10.3-2.3,12.6l-0.3,0.9c5.7,12.4,1.3,20.9-0.8,25l-0.7,1.3
				c3.6,13.3-5.2,22.4-9.3,26.5c-0.2,9.8-4.2,15.7-6.8,18.6C1246.7,211,1234.4,212.1,1229.5,212.1z M1151.6,192.9l0.5,0.3
				c1.7,0.8,11,5.2,24.2,5.2h53.2c3.1,0,10.7-0.6,15.4-5.9c1.2-1.3,3.7-4.8,3.2-11.7l-0.2-3.1l4.1-4.1c4.4-4.4,7.6-8.2,5.8-14
				c-1.3-4.4-0.2-6.7,1.4-9.6l0.5-1c1.8-3.5,3.7-7.2-0.1-14.3l-0.1-0.1c-0.5-1-1-2.1-1-3.9v-1l1.2-4.1c0.6-1.9,1.6-5.5,1.8-9.5
				c0.2-3.5-0.9-6.8-2.9-8.8c-2.5-2.7-5.6-4-8.9-4H1216c-5.2,0-9-5.6-9-10.7c0-1.9,0.6-3.8,1.6-7.1c0.3-1,0.6-2,0.9-2.9l0.4-1.1
				c2.1-6.5,4.7-14.6,5.2-23.5c0.2-7.9-1.5-13.7-5.3-17.7c-3-3.2-7.4-5-12-5c-1.5,0-3.6,0.1-5,1.2c-2.7,2-3.4,4.6-3.4,4.6l-0.1,0.3
				v14.5c0,7.1-3.1,15.4-9.1,24.6c-3.2,5-9.3,14.3-13.5,19.1l-0.8,0.7l-2,1.7c-4.2,3.7-7.3,6.2-11.1,6.2h-1.1L1151.6,192.9
				L1151.6,192.9z M1266.6,131l-0.9,0.5L1266.6,131L1266.6,131z M1267.2,130.7L1267.2,130.7l4.5-2.4c0,0,0,0,0-0.1L1267.2,130.7z"/>
		</g>
	</g>
</g>
</svg>
