<?xml version="1.0" encoding="utf-8"?>
<!-- Generator: Adobe Illustrator 22.0.1, SVG Export Plug-In . SVG Version: 6.00 Build 0)  -->
<svg version="1.1" id="Camada_1" xmlns="http://www.w3.org/2000/svg" xmlns:xlink="http://www.w3.org/1999/xlink" x="0px" y="0px"
	 viewBox="0 0 792 120" style="enable-background:new 0 0 792 120;" xml:space="preserve">
<style type="text/css">
	.st0{fill:#EAE54C;}
</style>
<g id="logo">
	<g>
		<g>
			<path class="st0" d="M65,111.6l47.6-82.9h12.3l-53.8,93.1H58.9L5,28.7h12.3L65,111.6z"/>
		</g>
		<g>
			<path class="st0" d="M217.8,57.4h-32.5v48.8c0,1.4,0.5,2.6,1.5,3.6c1,1,2.2,1.5,3.6,1.5h27.4v10.6h-27.4c-4.4,0-8.1-1.5-11.1-4.6
				c-3-3.1-4.5-6.7-4.5-11.1V22.3h10.6v24.6h32.5V57.4z"/>
		</g>
		<g>
			<path class="st0" d="M293.6,46.8h10.6v59.4c0,4.3-1.5,8-4.6,11.1c-3.1,3.1-6.8,4.6-11.2,4.6h-45c-4.3,0-8-1.5-11.1-4.6
				c-3.1-3.1-4.6-6.7-4.6-11.1V46.8h10.6v59.4c0,1.4,0.5,2.6,1.5,3.6c1,1,2.2,1.5,3.6,1.5h45c1.4,0,2.6-0.5,3.6-1.5
				c1-1,1.6-2.2,1.6-3.6V46.8z"/>
		</g>
		<g>
			<path class="st0" d="M378.2,46.8c4.4,0,8.1,1.5,11.2,4.6c3.1,3.1,4.6,6.7,4.6,11.1v59.4h-60.8c-4.3,0-8-1.5-11.1-4.6
				c-3.1-3.1-4.6-6.7-4.6-11.1V79h65.7V62.5c0-1.4-0.5-2.6-1.5-3.6c-1-1-2.2-1.5-3.6-1.5h-60.7V46.8H378.2z M383.2,111.2V89.6h-55.1
				v16.6c0,1.4,0.5,2.6,1.5,3.6c1,1,2.2,1.5,3.6,1.5H383.2z"/>
		</g>
		<g>
			<path class="st0" d="M406,22.3h10.6v83.9c0,1.4,0.5,2.6,1.5,3.6c1,1,2.2,1.5,3.6,1.5h12.7v10.6h-12.7c-4.3,0-8-1.5-11.1-4.6
				c-3.1-3.1-4.6-6.7-4.6-11.1V22.3z"/>
		</g>
		<g>
			<path class="st0" d="M496.4,78.3v10.6H446V78.3H496.4z"/>
		</g>
		<g>
			<path class="st0" d="M512.4,28.9H590c4.3,0,8,1.5,11,4.5c3,3,4.5,6.7,4.5,11v27.3c0,4.3-1.5,8-4.5,11c-3,3-6.7,4.5-11,4.5H528
				c-0.8,0-2.5-0.2-5-0.5v35.2h-10.5V28.9z M595.1,71.7V44.4c0-1.4-0.5-2.6-1.5-3.6c-1-1-2.2-1.5-3.6-1.5H528
				c-1.4,0-2.6,0.5-3.6,1.5c-1,1-1.5,2.2-1.5,3.6v27.3c0,1.4,0.5,2.5,1.5,3.5c1,0.9,2.2,1.4,3.6,1.4H590c1.4,0,2.6-0.5,3.6-1.4
				C594.6,74.2,595.1,73,595.1,71.7z"/>
		</g>
		<g>
			<path class="st0" d="M680.2,46.8h10.6v59.4c0,4.3-1.5,8-4.6,11.1c-3.1,3.1-6.8,4.6-11.2,4.6h-45c-4.3,0-8-1.5-11.1-4.6
				c-3.1-3.1-4.6-6.7-4.6-11.1V46.8H625v59.4c0,1.4,0.5,2.6,1.5,3.6c1,1,2.2,1.5,3.6,1.5h45c1.4,0,2.6-0.5,3.6-1.5
				c1-1,1.6-2.2,1.6-3.6V46.8z"/>
		</g>
	</g>
	<g>
		<path class="st0" d="M155.3,121.8h-19.6l-0.4-0.1c-8.7-1.7-10.2-7.6-9.8-10.7l0,0c0.2-4.9,0.2-4.9,0.1-19.8c0-5.8,0-13.9-0.1-25.3
			c-0.7-8.8,3-12.4,4.4-13.4c1.2-1.1,1.7-4.8,1.5-7.1c-0.7-5.7,2.3-23.3,3.5-29.7c0-0.1,0-0.1-0.1-0.2c-0.4-1.3-0.2-2.5,0.1-3.3
			c-0.8-1.1-1-2.2-1-2.9c0-4,4.3-6.5,11.3-6.5h0.3c7,0,11.3,2.5,11.3,6.5c0,0.6-0.1,1.7-1,2.9c0.3,0.8,0.5,2,0.1,3.3
			c0,0.1,0,0.1-0.1,0.2c1.2,6.4,4.2,23.9,3.5,29.7c-0.1,2.6,0.4,6.2,1.5,7.2c1.3,1,5,4.6,4.4,13.4c0,2.7-0.1,40.1,0.1,45.2
			c0.4,3.2-1.1,9-9.8,10.7L155.3,121.8z M136.6,114.1h18c2.4-0.5,3.3-1.4,3.3-2.1l-0.1-0.4l0.1-0.1c-0.2-4.5-0.1-44.1-0.1-45.8
			l0-0.3c0.4-4.5-0.9-6.3-1.2-6.7l-0.3-0.2l0.1-0.1c-4.8-3.9-4.5-12.2-4.4-13.8l0-0.2c0.5-3.8-2-19.8-3.7-29l-0.6-3.1l0.5-0.2
			c0-0.5,0-1,0-1.5c-0.7-0.1-1.5-0.2-2.5-0.2h-0.3c-1,0-1.8,0.1-2.5,0.2c0,0.5,0.1,1,0,1.5l0.5,0.2l-0.6,3.1
			c-1.7,9.2-4.2,25.2-3.7,29l0,0.3c0.1,1.6,0.4,9.9-4.4,13.8l-0.2,0.2c-0.3,0.3-1.6,2.1-1.2,6.7l0,0.3c0,11.5,0.1,19.6,0.1,25.5
			c0.1,15.1,0.1,15.1-0.1,20.2l0,0.8C133.4,112.7,134.3,113.6,136.6,114.1z M157.9,112.1L157.9,112.1L157.9,112.1z M156.7,58.8
			L156.7,58.8L156.7,58.8z"/>
	</g>
	<g>
		<g>
			<path class="st0" d="M755.2,121.8h-32.1c-10.8,0-18.1-4-18.4-4.2l-4.5-2.5V51.2h8.1c0.7-0.4,1.9-1.5,2.4-2l0.7-0.7
				c2.2-2.5,5.6-7.8,7.2-10.3l0.1-0.1c2.7-4.1,4.1-7.8,4.1-10.5v-9.9l0.3-1.2c0.3-1.2,1.5-4.4,5-7.1l0.2-0.1
				c2.1-1.4,4.7-2.1,7.6-2.1c5,0,9.8,2,13.1,5.5c3.9,4,5.7,9.6,5.4,16.6c-0.3,6.6-2.2,12.4-3.6,16.7c-0.2,0.5-0.5,1.4-0.7,2.3h17.4
				c4.2,0,8.2,1.8,11.1,4.8c2.8,3,4.3,7.1,4,11.3c-0.1,3.7-1,6.7-1.4,7.9l-0.1,0.3c3.8,8,0.6,13.3-1,15.9c0,0.1-0.1,0.1-0.1,0.2
				c2.2,8.1-3,13.4-5.5,15.9c0,5.4-2.1,9-4,11.1C765.6,121.2,758.2,121.8,755.2,121.8z M707.9,110.6l0.5,0.3c0.1,0,6,3.2,14.7,3.2
				h32.1c1.9,0,6.7-0.4,9.5-3.6c1.1-1.3,2.3-3.5,2.1-7.3l-0.1-1.7l1.2-1.2c0.2-0.2,0.5-0.5,0.8-0.8l0.3-0.3c2.7-2.7,4.9-5.1,3.7-9
				c-0.8-2.8,0-4.2,1-5.9c1.3-2.2,2.8-4.6,0.3-9.2l0,0c-0.3-0.5-0.6-1.3-0.6-2.3v-0.5l0.7-2.4c0.3-0.9,1-3.2,1.1-5.8l0-0.3
				c0.2-2.1-0.5-4.1-1.9-5.6c-1.4-1.5-3.4-2.3-5.4-2.3h-20.4c-2.8,0-5.2-2.9-5.2-6.2c0-1.2,0.5-2.8,1.6-6.2c1.3-3.9,3-9.1,3.2-14.6
				c0.2-4.8-0.9-8.4-3.3-10.9c-1.9-2-4.7-3.1-7.6-3.1c-1.3,0-2.4,0.3-3.2,0.8c-1.8,1.4-2.2,2.9-2.2,3l0,0.2v8.8
				c0,4.2-1.8,9.1-5.3,14.6l-0.1,0.1c-1.9,3-5.5,8.5-8.1,11.4l-0.3,0.3l-0.9,0.8c-2.6,2.3-4.6,3.9-6.9,3.9h-1V110.6z"/>
		</g>
	</g>
</g>
</svg>
